<svg width="36" height="41" viewBox="0 0 36 41" fill="none" xmlns="http://www.w3.org/2000/svg">
<path d="M12.9084 31.643C13.943 31.0885 14.933 30.4549 15.8739 29.7486C16.8505 29.0333 17.7469 28.2453 18.6343 27.4207C18.9554 27.1126 19.2632 26.7943 19.5709 26.4755C19.883 26.1571 20.1729 25.8232 20.4806 25.5048C22.6612 23.2224 24.6457 20.7552 26.4117 18.1294C27.1876 16.9605 27.8877 15.7399 28.5031 14.4755C28.8911 13.6718 29.2523 12.8472 29.5734 12.0172C29.89 11.1871 30.2602 10.3835 30.5278 9.53783C30.7061 9.0159 30.9023 9.10475 31.0406 9.63696C31.1387 9.99369 31.1922 10.3625 31.2011 10.7331C31.219 10.9728 31.219 11.2139 31.2011 11.4537L31.161 11.8448C31.1298 11.9756 31.0896 12.1047 31.045 12.231C30.4296 14.0419 29.6448 15.7894 28.7039 17.4508C27.7807 19.1112 26.7283 20.6931 25.5554 22.1799C24.1462 23.9547 22.7416 25.8339 21.1584 27.5559C19.4193 29.4468 17.4793 31.1363 15.3745 32.5931C14.05 33.5205 12.6052 34.2549 11.08 34.7751C9.87597 35.1885 8.60061 35.3225 7.33858 35.1666C6.67413 35.0827 6.03195 34.872 5.4433 34.5451C4.8056 34.188 4.29275 33.6415 3.97167 32.9793C3.5391 31.9975 3.40974 30.9054 3.6015 29.8477C3.73974 28.8722 4.03406 27.927 4.47555 27.0496C4.65839 26.6683 4.8591 26.2987 5.08654 25.9433C5.97843 24.6436 6.48233 24.4087 7.04422 24.4922C7.17354 24.5002 7.30286 24.523 7.42772 24.5601C7.78002 24.7061 7.60611 25.3535 7.16017 26.267C6.82125 26.9371 6.54474 27.6354 6.33069 28.3547C6.10772 29.0128 5.95614 29.6937 5.87587 30.3853C5.79114 30.9059 5.85357 31.4398 6.05871 31.9252C6.23263 32.3011 6.56261 32.5797 6.9595 32.6869C7.87369 32.9896 8.85029 33.0329 9.78232 32.8123C10.866 32.5636 11.905 32.1556 12.8683 31.6015L12.9084 31.643Z" fill="white"/>
<path d="M19.7359 35.735C20.4449 35.4385 21.1317 35.0894 21.7917 34.6911C22.0414 34.5451 22.2465 34.3469 22.4873 34.2004C23.3614 33.6843 24.1909 33.0976 24.9713 32.4467C25.3146 32.1524 25.6357 31.8332 25.93 31.4916C26.1307 31.2827 26.2868 31.0376 26.5009 30.8393C26.7105 30.6406 26.9111 30.437 27.1252 30.2442C27.2545 30.1187 27.3615 30.2178 27.4106 30.4424C27.4641 30.7549 27.424 31.0768 27.2946 31.3662C27.2634 31.4394 27.2411 31.5229 27.2054 31.5907L27.0627 31.7841L26.7818 32.1493C26.5856 32.3944 26.3849 32.6292 26.1753 32.8538C25.7606 33.3097 25.3013 33.7258 24.8107 34.0964C24.2132 34.5348 23.6869 35.1036 23.076 35.5523C22.3848 36.0381 21.6623 36.4757 20.9131 36.8628C20.4583 37.0976 19.9901 37.3168 19.5129 37.5097C18.7771 37.8057 18.0189 38.0258 17.2385 38.1674C16.6276 38.3027 16.0033 38.3585 15.3745 38.3344C15.2318 38.3335 15.0936 38.3196 14.9553 38.2928C14.438 38.1151 14.331 37.9066 14.3444 37.6088C14.3355 37.5396 14.3355 37.4695 14.3444 37.4003C14.3845 37.1914 14.6343 37.0713 14.9598 37.0297C15.1872 36.9829 15.4146 36.9494 15.6465 36.9306C15.8695 36.894 16.088 36.8677 16.311 36.8105C16.7525 36.7217 17.1895 36.5806 17.6533 36.4712C18.3579 36.2899 19.0446 36.0399 19.7046 35.7247L19.7359 35.735Z" fill="white"/>
<path d="M10.5403 36.6279C9.85802 36.8753 9.14455 37.0298 8.42212 37.0873C7.61496 37.1458 6.80334 37.0101 6.05861 36.6904C5.3005 36.3489 4.64049 35.8086 4.15441 35.1246L3.82888 34.6393L3.56575 34.1174C3.38291 33.7347 3.25356 33.3293 3.17775 32.9114C2.98599 31.4671 3.16439 29.9973 3.69061 28.6417C4.12764 27.4202 4.66278 26.2366 5.28711 25.1029C6.509 22.871 8.00289 20.8034 9.73316 18.9487C11.4456 17.0771 13.3721 15.4224 15.477 14.0214C17.0289 12.9779 18.6967 12.1247 20.4448 11.4795C22.2554 10.8125 24.1774 10.5201 26.0994 10.6183C27.8297 10.7241 29.5198 11.184 31.0717 11.9702C31.8833 12.3658 32.637 12.8793 33.3014 13.4941C34.006 14.1566 34.559 14.967 34.9247 15.8693C35.277 16.7489 35.4509 17.6914 35.4375 18.6411C35.4241 19.5224 35.3037 20.3989 35.0807 21.2508C34.6437 22.884 33.9882 24.4489 33.132 25.9013C32.3159 27.3117 31.3794 28.6449 30.327 29.8838C29.2835 31.1036 28.1641 32.2546 26.9779 33.3289C24.6099 35.4974 21.9209 37.2699 19.0088 38.5799C18.3533 38.8715 17.68 39.1273 16.9977 39.3474C16.6543 39.4519 16.3064 39.551 15.972 39.6394C15.5082 39.7448 15.0355 39.7885 14.5628 39.7702C14.0812 39.7497 13.604 39.6385 13.158 39.4412C12.7166 39.2595 12.3776 38.8893 12.226 38.4286C11.9763 37.5048 12.5605 36.5654 13.2115 35.8189C13.2873 35.73 13.381 35.6206 13.4479 35.5528L13.6397 35.3595C13.7645 35.2291 13.8939 35.0983 14.0232 34.9786C14.2818 34.7228 14.536 34.4879 14.8169 34.2477C15.3298 33.7727 15.9006 33.3289 16.4581 32.8958C17.5774 32.035 18.7457 31.2452 19.9587 30.5313C21.5329 29.5785 23.2141 28.8217 24.9667 28.2765C25.8898 27.997 26.8441 27.8376 27.8074 27.8015C28.8509 27.7568 29.89 27.9515 30.8443 28.3703C31.8254 28.8373 32.6503 29.5869 33.2167 30.5259L33.5958 31.2153C33.7117 31.4697 33.8098 31.7332 33.8856 32.0033C34.0328 32.5132 34.1131 33.0391 34.1309 33.5691C34.1621 34.5545 34.0373 35.5385 33.7563 36.4819C33.4977 37.4061 33.123 38.2937 32.6459 39.1229C32.0082 40.1667 31.482 40.4328 31.3928 40.2868C31.2991 40.1408 31.4775 39.5613 31.6469 38.6424C31.8788 37.4396 31.9369 36.2087 31.8165 34.9889C31.7719 34.2928 31.6291 33.6075 31.3928 32.9534C31.1208 32.3792 30.7373 31.8689 30.2601 31.455C29.8097 31.0983 29.279 30.8612 28.7171 30.7661C28.0348 30.6616 27.3436 30.6705 26.6613 30.7924C25.0782 31.0951 23.5486 31.6349 22.1215 32.3948C20.6187 33.1699 19.1828 34.0709 17.8271 35.088C17.1359 35.61 16.4714 36.1319 15.8516 36.6802C15.7 36.8208 15.5394 36.9619 15.4012 37.103L15.1246 37.3744C15.0667 37.4267 15.0801 37.4057 15.0622 37.4316C15.0399 37.4579 15.0622 37.5102 15.1246 37.5151H15.2094L15.4279 37.4682L15.7133 37.395C16.1013 37.2909 16.4893 37.1655 16.8772 37.0244C18.4559 36.419 19.9676 35.6474 21.3902 34.7228C24.2844 32.811 26.8709 30.4589 29.056 27.7492C30.3627 26.1325 31.4329 24.3301 32.2222 22.3991C32.9803 20.5096 33.3371 18.4009 32.6459 16.819C32.2891 16.0104 31.696 15.33 30.9557 14.867C30.5499 14.6058 30.1308 14.3736 29.6938 14.1727C29.4619 14.0843 29.2389 13.9798 29.007 13.891L28.3024 13.6664C26.3625 13.1583 24.3334 13.1583 22.3936 13.6664C20.1639 14.2357 18.0546 15.1969 16.1504 16.506C14.206 17.8289 12.4223 19.3791 10.8347 21.1253C9.22482 22.8621 7.8424 24.8025 6.72308 26.8982C6.18348 27.9287 5.75091 29.0132 5.43429 30.1348C5.13996 31.2255 5.06414 32.3373 5.46103 33.1463C5.71076 33.6999 6.09872 34.1745 6.59372 34.5192C6.83453 34.6665 7.09762 34.7737 7.36965 34.8375C7.66398 34.8992 7.96281 34.9184 8.2616 34.8951C9.62173 34.7116 10.9194 34.2116 12.0566 33.4334C14.4959 31.9145 16.681 29.8423 18.7591 27.7492C21.9521 24.5989 24.717 21.0302 26.9824 17.1378C28.075 15.2166 28.9267 13.1605 29.5064 11.0201L29.6938 10.2423L29.832 9.43868C29.9345 8.92255 29.997 8.39883 30.0193 7.87288C30.0862 6.91206 29.8677 5.95259 29.3861 5.12214C28.9981 4.54618 28.4451 4.10371 27.8029 3.85368C27.0938 3.58936 26.3446 3.44159 25.591 3.41524C23.9767 3.36345 22.3624 3.5532 20.806 3.97869C19.2095 4.39079 17.6488 4.93372 16.1415 5.6021C14.6431 6.29592 13.2026 7.10941 11.8291 8.03451C10.6117 8.8538 9.4745 9.75704 8.3195 10.7071C7.24478 11.5889 6.37073 12.3511 5.63938 12.9931C4.90357 13.6352 4.28817 14.1312 3.76641 14.533C3.06182 15.1456 2.24573 15.6135 1.36276 15.9108C1.07289 16.0216 0.778615 16.1073 0.475372 16.1667C0.105237 16.1667 0.247884 15.7024 0.823155 14.8045C1.72842 13.4615 2.7497 12.2006 3.86903 11.0358C6.0943 8.64843 8.57371 6.5147 11.2538 4.67298C11.9495 4.20864 12.6631 3.76484 13.4034 3.35229C14.1481 2.9268 14.9196 2.54371 15.7089 2.20394C17.292 1.53288 18.9331 1.00916 20.6098 0.638139C22.3802 0.222467 24.1996 0.066216 26.0146 0.173817C27.0492 0.249272 28.066 0.503305 29.0159 0.925227C30.1174 1.40966 31.0673 2.19816 31.7496 3.20095C32.3962 4.18276 32.7841 5.31682 32.8778 6.49463C32.958 7.49876 32.9135 8.51001 32.7306 9.50119C32.4319 11.2831 31.9279 13.0239 31.2367 14.6897C30.2199 17.0846 28.949 19.3599 27.4506 21.4753C25.9835 23.5443 24.3736 25.5066 22.6344 27.3474C20.9175 29.1748 19.1025 30.9072 17.1983 32.5355C16.2173 33.3726 15.1871 34.1482 14.1168 34.8585C13.0064 35.6131 11.8158 36.2279 10.5582 36.6904L10.5403 36.6279Z" fill="white"/>
</svg>
