<svg width="159" height="153" viewBox="0 0 159 153" fill="none" xmlns="http://www.w3.org/2000/svg">
<path d="M70.0304 10.0668C69.3169 12.2697 68.5899 14.4686 67.8095 16.651C67.4037 17.8123 66.9889 18.9744 66.6678 20.1598C64.9554 26.49 63.3189 32.8456 61.4548 39.1321C60.2864 42.9963 59.0779 46.8477 57.8292 50.6865L55.9428 56.4385L53.9852 62.1673C53.5615 63.3156 53.0443 64.4265 52.4378 65.4886C52.2104 65.9351 51.8758 66.3191 51.4655 66.6084C51.0553 66.8977 50.5826 67.0843 50.0831 67.1526C48.7007 67.3732 47.6705 66.2874 47.8891 64.639C48.0585 63.5706 48.3618 62.5302 48.7943 61.5426C49.7308 59.2727 50.5648 56.9698 51.2961 54.6347C52.0364 52.3019 52.6831 49.9378 53.2271 47.5415C53.5348 46.2191 53.7712 44.818 54.342 43.6241C56.1481 39.808 57.0935 35.6714 58.574 31.7348C59.6711 28.8081 60.5495 25.7908 61.5573 22.8267L64.2508 14.8954C65.1338 12.2469 66.0836 9.61847 66.9755 6.97085C67.3546 5.9502 67.7961 4.95634 68.3045 3.99641C68.8084 3.10077 69.3659 2.23507 69.9679 1.40284C70.4986 0.665255 71.0604 0.895171 71.0738 1.94261C71.0872 3.44501 70.998 4.94475 70.8018 6.43063C70.7215 7.04052 70.6056 7.64818 70.4629 8.25048C70.2979 8.84519 70.1329 9.44167 69.9679 10.035L70.0304 10.0668Z" fill="white"/>
<path d="M127.053 47.5603L124.949 49.6297L122.781 51.6496C122.019 52.3658 121.252 53.0855 120.556 53.8642C119.624 54.9009 118.705 55.9492 117.787 57.0011L115.026 60.1394L109.514 66.4258L102.714 74.1486L95.9532 81.9101C95.2441 82.6772 94.4816 83.3916 93.67 84.0475C93.3489 84.3301 92.9653 84.5328 92.5461 84.639C92.1314 84.7453 91.69 84.7525 91.2663 84.6596C90.089 84.4283 89.5984 83.2688 90.2763 82.012C90.7356 81.2052 91.2975 80.4627 91.9486 79.8028C94.8472 76.7466 97.5452 73.5074 100.025 70.1039C100.658 69.1172 101.398 68.2073 102.241 67.3925C104.993 65.0163 107.191 62.1159 109.782 59.5902C111.708 57.7159 113.497 55.6983 115.419 53.8123C118.852 50.4615 122.318 47.1477 125.907 43.9635C127.259 42.7397 128.806 41.7507 130.487 41.0373C131.219 40.727 131.615 41.1998 131.187 41.9757C130.563 43.0826 129.867 44.1456 129.105 45.1587C128.458 45.9838 127.758 46.7687 127.018 47.5099L127.053 47.5603Z" fill="white"/>
<path d="M152.294 106.361C150.604 106.676 148.909 106.984 147.21 107.285C146.305 107.406 145.404 107.581 144.521 107.808C142.18 108.465 139.852 109.174 137.524 109.883C135.201 110.589 132.869 111.28 130.532 111.931C127.651 112.741 124.766 113.52 121.88 114.305L113.211 116.613C112.315 116.815 111.392 116.906 110.469 116.884C109.581 116.896 108.823 116.293 108.19 115.401C107.271 114.1 107.294 112.43 108.355 111.736C109.051 111.315 109.826 111.045 110.638 110.941C114.281 110.346 117.831 109.324 121.216 107.896C122.157 107.503 123.116 107.014 124.128 106.976C127.352 106.84 130.318 105.684 133.453 105.207C135.776 104.844 138.059 104.264 140.374 103.858C142.439 103.495 144.508 103.149 146.581 102.818L152.82 101.954C154.448 101.72 156.111 101.877 157.681 102.413C157.846 102.458 157.989 102.549 158.1 102.676C158.212 102.802 158.283 102.958 158.305 103.123C158.328 103.289 158.296 103.455 158.225 103.603C158.149 103.75 158.033 103.871 157.886 103.951C156.932 104.536 155.942 105.064 154.921 105.531C154.06 105.846 153.181 106.098 152.28 106.283L152.294 106.361Z" fill="white"/>
<path d="M130.795 152.769C130.344 152.653 129.89 152.552 129.444 152.408L128.11 151.97C127.642 151.804 127.16 151.677 126.674 151.589C125.368 151.404 124.048 151.268 122.746 151.06C121.439 150.867 120.137 150.667 118.839 150.419C117.247 150.117 115.655 149.787 114.081 149.404L109.345 148.259C108.859 148.104 108.399 147.861 107.998 147.541C107.588 147.251 107.436 146.55 107.432 145.68C107.432 144.412 107.98 143.187 108.685 143.033C109.117 142.954 109.572 143.017 109.974 143.21C111.82 143.989 113.791 144.398 115.78 144.415C116.333 144.425 116.93 144.352 117.408 144.651C118.937 145.589 120.663 145.658 122.264 146.275C123.455 146.743 124.703 146.956 125.903 147.388C128.039 148.148 130.193 148.856 132.315 149.689C133.198 150.021 133.961 150.615 134.501 151.391C134.563 151.488 134.608 151.597 134.626 151.71C134.643 151.824 134.634 151.939 134.603 152.049C134.572 152.159 134.518 152.26 134.443 152.344C134.367 152.43 134.273 152.497 134.171 152.542C133.859 152.625 133.546 152.697 133.23 152.757C132.922 152.823 132.61 152.862 132.298 152.874C131.798 152.865 131.303 152.809 130.813 152.709L130.795 152.769Z" fill="white"/>
<path d="M5.17637 37.0538C5.58218 38.0914 5.97916 39.1308 6.36268 40.1725C6.54998 40.7288 6.77292 41.2739 7.03157 41.8048C7.76738 43.188 8.49421 44.5815 9.19434 45.9901C9.88556 47.401 10.5278 48.836 11.112 50.2955C11.8121 52.0975 12.4587 53.9204 13.0295 55.7671C13.6004 57.6133 14.1221 59.4729 14.5904 61.3463C14.7063 61.9325 14.7286 62.5321 14.6439 63.1206C14.5948 63.6939 14.0686 64.1694 13.3194 64.5489C12.2313 65.0998 10.9112 65.0499 10.443 64.3886C10.1665 63.964 10.006 63.4774 9.97483 62.9769C9.73848 60.7257 9.05616 58.5344 7.97251 56.5301C7.67373 55.9703 7.29027 55.4171 7.25013 54.7974C7.13865 52.8083 6.14413 51.0875 5.62683 49.2181C5.43061 48.5239 5.1942 47.8394 4.92664 47.1684C4.66799 46.4924 4.39156 45.8236 4.14629 45.1436C3.25439 42.7201 2.34016 40.2926 1.31449 37.9039C0.913134 36.886 0.850768 35.7738 1.13171 34.7308C1.22536 34.2209 1.70701 33.9838 2.32687 34.1888L2.91547 34.4526C3.00912 34.4893 3.09388 34.5433 3.16969 34.6125L3.38376 34.7942C3.66471 35.0366 3.93221 35.2952 4.18194 35.5688C4.38262 35.7907 4.55659 36.0323 4.70821 36.2903C4.84199 36.5524 4.96684 36.8217 5.10954 37.0811L5.17637 37.0538Z" fill="white"/>
</svg>
